<?xml version="1.0" encoding="UTF-8" standalone="no"?>
<!-- Created with Inkscape (http://www.inkscape.org/) -->

<svg
   xmlns:dc="http://purl.org/dc/elements/1.1/"
   xmlns:cc="http://creativecommons.org/ns#"
   xmlns:rdf="http://www.w3.org/1999/02/22-rdf-syntax-ns#"
   xmlns:svg="http://www.w3.org/2000/svg"
   xmlns="http://www.w3.org/2000/svg"
   xmlns:sodipodi="http://sodipodi.sourceforge.net/DTD/sodipodi-0.dtd"
   xmlns:inkscape="http://www.inkscape.org/namespaces/inkscape"
   id="svg2985"
   version="1.1"
   inkscape:version="0.48.4 r9939"
   width="1052.5505"
   height="744"
   xml:space="preserve"
   sodipodi:docname="waveform.svg"><metadata
     id="metadata2991"><rdf:RDF><cc:Work
         rdf:about=""><dc:format>image/svg+xml</dc:format><dc:type
           rdf:resource="http://purl.org/dc/dcmitype/StillImage" /><dc:title></dc:title></cc:Work></rdf:RDF></metadata><defs
     id="defs2989" /><sodipodi:namedview
     pagecolor="#ffffff"
     bordercolor="#666666"
     borderopacity="1"
     objecttolerance="10"
     gridtolerance="10"
     guidetolerance="10"
     inkscape:pageopacity="0"
     inkscape:pageshadow="2"
     inkscape:window-width="1920"
     inkscape:window-height="1148"
     id="namedview2987"
     showgrid="false"
     inkscape:zoom="1.7943785"
     inkscape:cx="733.16293"
     inkscape:cy="455.89576"
     inkscape:window-x="-8"
     inkscape:window-y="-8"
     inkscape:window-maximized="1"
     inkscape:current-layer="layer1" /><g
     id="g2993"
     inkscape:groupmode="layer"
     inkscape:label="waveform"
     transform="matrix(1.25,0,0,-1.25,0.141735,744)"
     sodipodi:insensitive="true"><path
       d="m 91.56,529.92 624.84,0 0,-452.16 -624.84,0 0,452.16 z"
       style="fill:#ffffff;fill-opacity:1;fill-rule:nonzero;stroke:none"
       id="path2995"
       inkscape:connector-curvature="0" /><path
       d="m 152.28,485.64 539.16,0 0,-401.76 -539.16,0 0,401.76 z"
       style="fill:#ffffff;fill-opacity:1;fill-rule:nonzero;stroke:none"
       id="path2997"
       inkscape:connector-curvature="0" /><g
       id="g2999"
       transform="translate(152.28,84)"><path
         d="M 0,0 539.04,0 M 0,114.72 l 539.04,0 M 0,172.08 l 539.04,0 M 0,229.56 l 539.04,0 M 0,286.92 l 539.04,0 M 0,344.28 l 539.04,0 M 0,401.64 l 539.04,0"
         style="fill:none;stroke:#878787;stroke-width:0.72000003;stroke-linecap:butt;stroke-linejoin:round;stroke-miterlimit:10;stroke-opacity:1;stroke-dasharray:none"
         id="path3001"
         inkscape:connector-curvature="0" /></g><g
       id="g3003"
       transform="translate(152.28,84)"><path
         d="M 0,0 0,401.64"
         style="fill:none;stroke:#878787;stroke-width:0.72000003;stroke-linecap:butt;stroke-linejoin:round;stroke-miterlimit:10;stroke-opacity:1;stroke-dasharray:none"
         id="path3005"
         inkscape:connector-curvature="0" /></g><g
       id="g3007"
       transform="translate(149.16,84)"><path
         d="M 0,0 3.12,0 M 0,57.36 l 3.12,0 M 0,114.72 l 3.12,0 M 0,172.08 l 3.12,0 M 0,229.56 l 3.12,0 M 0,286.92 l 3.12,0 M 0,344.28 l 3.12,0 M 0,401.64 l 3.12,0"
         style="fill:none;stroke:#878787;stroke-width:0.72000003;stroke-linecap:butt;stroke-linejoin:round;stroke-miterlimit:10;stroke-opacity:1;stroke-dasharray:none"
         id="path3009"
         inkscape:connector-curvature="0" /></g><g
       id="g3011"
       transform="translate(152.28,141.36)"><path
         d="M 0,0 539.04,0"
         style="fill:none;stroke:#878787;stroke-width:0.72000003;stroke-linecap:butt;stroke-linejoin:round;stroke-miterlimit:10;stroke-opacity:1;stroke-dasharray:none"
         id="path3013"
         inkscape:connector-curvature="0" /></g><g
       id="g3015"
       transform="translate(152.28,141.36)"><path
         d="M 0,0 0,-3.12 M 53.88,0 l 0,-3.12 m 53.88,3.12 0,-3.12 m 54,3.12 0,-3.12 m 53.88,3.12 0,-3.12 m 53.88,3.12 0,-3.12 M 323.4,0 l 0,-3.12 m 53.88,3.12 0,-3.12 m 53.88,3.12 0,-3.12 m 53.88,3.12 0,-3.12 m 54,3.12 0,-3.12"
         style="fill:none;stroke:#878787;stroke-width:0.72000003;stroke-linecap:butt;stroke-linejoin:round;stroke-miterlimit:10;stroke-opacity:1;stroke-dasharray:none"
         id="path3017"
         inkscape:connector-curvature="0" /></g><g
       id="g3019"
       transform="translate(152.34,142.14)"><path
         d="m 0,0 0.48,283.68 0.6,2.4 0.48,2.28 0.6,0 0.6,2.28 0.48,0 0.6,0 0.48,-286.08 0.6,-2.28 0.6,0 L 6,0 6.6,0 7.08,-2.28 7.68,0 8.28,-2.28 8.76,0 l 0.6,0 0.48,0 0.6,-2.28 0.6,2.28 0.48,0 0.6,0 0.48,0 0.6,0 0.48,0 0.6,-2.28 0.6,0 0.48,0 0.6,0 0.48,2.28 0.6,0 0.6,0 0.48,0 0.6,0 0.48,0 0.6,-2.28 0.6,2.28 0.48,0 0.6,0 0.48,0 0.6,0 0.6,0 0.48,0 0.6,-2.28 0.48,2.28 0.6,-2.28 0.6,0 L 26.4,0 27,-2.28 27.48,0 l 0.6,0 0.6,0 0.48,0 0.6,-2.28 0.48,2.28 0.6,0 0.6,-2.28 0.48,2.28 0.6,0 0.48,0 0.6,-2.28 0.6,2.28 0.48,-2.28 0.6,2.28 0.48,0 0.6,0 0.6,0 0.48,0 0.6,-2.28 0.48,0 0.6,2.28 0.6,0 0.48,-2.28 0.6,2.28 0.48,0 0.6,-2.28 0.6,2.28 0.48,-2.28 0.6,0 0.48,2.28 0.6,0 0.6,0 0.48,0 0.6,-2.28 0.48,2.28 0.6,0 0.6,0 0.48,0 0.6,0 0.48,0 0.6,0 0.6,2.28 0.48,-4.56 0.6,2.28 0.48,0 0.6,0 0.6,0 0.48,-2.28 0.6,2.28 0.48,0 0.6,-2.28 0.6,0 0.48,2.28 0.6,0 0.48,-2.28 0.6,0 0.6,2.28 0.48,0 0.6,0 0.48,-2.28 0.6,0 0.6,2.28 0.48,0 0.6,-2.28 0.48,2.28 0.6,-2.28 0.6,2.28 0.48,0 0.6,0 0.48,0 0.6,-2.28 0.6,2.28 0.48,0 0.6,0 0.48,0 0.6,2.28 0.6,-2.28 0.48,0 0.6,0 0.48,0 0.6,-2.28 0.6,2.28 0.48,0 0.6,0 0.48,0 0.6,-2.28 0.6,0 0.48,2.28 0.6,-2.28 0.48,2.28 0.6,-2.28 0.6,2.28 0.48,-2.28 0.6,2.28 0.48,0 0.6,0 0.6,0 0.48,0 0.6,0 0.48,0 0.6,0 0.6,-2.28 0.48,2.28 0.6,-2.28 0.48,2.28 0.6,2.28 0.6,-4.56 0.48,2.28 0.6,0 0.48,2.28 0.6,-2.28 0.6,-2.28 0.48,0 0.6,0 0.48,0 0.6,2.28 0.6,0 0.48,0 0.6,-2.28 0.48,0 0.6,2.28 0.6,0 0.48,0 0.6,0 0.48,-2.28 0.6,2.28 0.6,0 0.48,0 0.6,0 0.48,-2.28 0.6,2.28 0.6,-2.28 0.48,2.28 0.6,0 0.48,-2.28 0.6,0 0.6,2.28 0.48,0 0.6,-2.28 0.48,2.28 0.6,0 0.6,0 0.48,0 0.6,0 0.48,-2.28 0.6,0 0.6,2.28 0.48,0 0.6,0 0.48,0"
         style="fill:none;stroke:#4a7ebb;stroke-width:0.12;stroke-linecap:round;stroke-linejoin:round;stroke-miterlimit:10;stroke-opacity:1;stroke-dasharray:none"
         id="path3021"
         inkscape:connector-curvature="0" /></g><g
       id="g3023"
       transform="translate(262.62,142.14)"><path
         d="M 0,0 0.6,-2.28 1.2,0 1.68,0 2.28,-2.28 2.76,0 l 0.6,-2.28 0.6,0 0.48,0 0.6,2.28 0.48,-2.28 0.6,2.28 0.6,-2.28 0.48,0 0.6,0 0.48,0 0.6,281.4 0.6,9.24 0.48,-4.68 0.6,6.96 0.48,-2.28 0.6,0 0.6,0 0.48,2.28 0.6,-2.28 0.48,2.28 0.6,-4.56 0.6,0 0.48,2.28 0.6,-4.68 0.48,0 0.6,4.68 0.6,2.28 0.48,-2.28 0.6,2.28 0.48,-4.56 L 19.92,4.56 20.52,0 21,0 l 0.6,0 0.48,-2.28 0.6,2.28 0.6,0 0.48,279.12 0.6,2.28 0.48,4.68 0.6,-4.68 0.6,4.68 0.48,2.28 L 27.12,9.24 27.6,4.56 28.2,2.28 28.8,0 l 0.48,0 0.6,-2.28 0.48,0 0.6,0 0.6,2.28 0.48,0 0.6,-2.28 0.48,0 0.6,0 0.6,0 0.48,2.28 0.6,-2.28 0.48,2.28 0.6,0 0.6,0 0.48,-2.28 0.6,283.68 0.48,6.96 0.6,-2.28 0.6,4.56 0.48,0 0.6,-2.28 0.48,0 0.6,-281.52 0.6,-4.56 0.48,0 0.6,-2.28 0.48,2.28 0.6,-2.28 0.6,-2.28 0.48,2.28 0.6,0 0.48,-2.28 0.6,4.56 0.6,-2.28 0.48,-2.28 0.6,2.28 0.48,-2.28 0.6,2.28 0.6,0 0.48,-2.28 0.6,2.28 0.48,0 0.6,281.4 0.6,4.68 0.48,2.28 0.6,0 0.48,0 0.6,-2.28 0.6,4.56 0.48,-2.28 0.6,2.28 0.48,-6.96 0.6,4.68 0.6,-2.28 0.48,0 0.6,4.56 0.48,0 0.6,-2.28 0.6,-2.28 0.48,4.56 0.6,0 0.48,2.28 0.6,-283.68 0.6,-4.68 0.48,-2.28 0.6,-2.28 0.48,-2.28 0.6,0 0.6,0 0.48,281.4 0.6,6.96 0.48,-2.4 0.6,6.96 0.6,-2.28 0.48,0 0.6,2.28 0.48,0 0.6,-2.28 0.6,2.28 0.48,-6.96 0.6,4.68 0.48,2.28 0.6,-2.28 0.6,-2.28 0.48,0 0.6,2.28 0.48,-2.28 0.6,0 0.6,2.28 0.48,-279.12 0.6,-6.96 0.48,-2.28 0.6,0 0.6,0 0.48,-2.28 0.6,2.28 0.48,283.68 0.6,4.68 0.6,2.28 0.48,0 0.6,0 0.48,-2.28 0.6,0 0.6,-283.8 0.48,-4.56 0.6,0 0.48,0 0.6,-2.28 0.6,2.28 0.48,0 0.6,0 0.48,0 0.6,-2.28 0.6,0 0.48,0 0.6,2.28 0.48,0 0.6,0 0.6,0 0.48,0 0.6,0 0.48,-2.28 0.6,4.56 0.48,279.12 0.6,4.68 0.6,0 0.48,2.28 0.6,0 0.48,2.28 0.6,-4.56 0.6,2.28 0.48,2.28 0.6,-6.96 0.48,4.68 0.6,0 0.6,0 0.48,2.28 0.6,0 0.48,-4.56 0.6,0 0.6,2.28 0.48,-2.28 0.6,2.28 0.48,-283.8 0.6,-4.56 0.6,0 0.48,-2.28"
         style="fill:none;stroke:#4a7ebb;stroke-width:0.12;stroke-linecap:round;stroke-linejoin:round;stroke-miterlimit:10;stroke-opacity:1;stroke-dasharray:none"
         id="path3025"
         inkscape:connector-curvature="0" /></g><g
       id="g3027"
       transform="translate(373.02,139.86)"><path
         d="m 0,0 0.6,2.28 0.48,0 0.6,-2.28 0.6,285.96 0.48,0 0.6,2.4 0.48,-2.4 0.6,4.68 0.6,-2.28 0.48,0 0.6,0 0.48,2.28 0.6,-2.28 0.6,0 0.48,2.28 0.6,-2.28 0.48,2.28 0.6,2.28 0.6,-4.56 0.48,0 0.6,0 0.48,2.28 0.6,-4.68 0.6,-279.12 0.48,-2.28 0.6,-2.28 0.48,0 0.6,0 0.6,0 0.48,279.12 0.6,6.96 0.48,0 0.6,2.28 0.6,2.28 0.48,0 0.6,0 0.48,-4.56 0.6,2.28 0.6,-2.28 0.48,-2.4 0.6,2.4 0.48,0 0.6,2.28 0.6,2.28 0.48,-2.28 0.6,-2.28 0.48,2.28 0.6,2.28 0.6,-4.56 0.48,4.56 0.6,-286.08 0.48,-2.28 0.6,0 0.6,-2.28 0.48,-2.28 0.6,2.28 0.48,276.84 0.6,9.24 0.6,-4.68 0.48,9.24 0.6,-6.96 0.48,6.96 0.6,-2.28 0.6,-281.52 0.48,-4.56 0.6,0 0.48,-2.28 0.6,-2.28 0.6,2.28 0.48,0 0.6,0 0.48,0 0.6,-2.28 0.6,2.28 0.48,0 0.6,0 0.48,0 0.6,0 0.6,0 0.48,-2.28 0.6,2.28 0.48,0 0.6,-2.28 0.6,281.4 0.48,2.28 0.6,6.96 0.48,2.28 0.6,-2.28 0.6,-2.28 0.48,0 0.6,2.28 0.48,-4.68 0.6,6.96 0.6,-4.56 0.48,2.28 0.6,2.28 0.48,-2.28 0.6,2.28 0.6,0 0.48,-2.28 0.6,2.28 0.48,-2.28 0.6,0 0.6,-281.52 0.48,-4.56 0.6,0 0.48,-2.28 0.6,0 0.6,-2.28 0.48,2.28 0.6,281.4 0.48,6.96 0.6,0 0.6,-2.28 0.48,0 0.6,-2.4 0.48,4.68 0.6,-283.8 0.6,-2.28 0.48,-2.28 0.6,-2.28 0.48,0 0.6,2.28 0.6,-2.28 0.48,2.28 0.6,0 0.48,-2.28 0.6,0 0.6,0 0.48,0 0.6,0 0.48,0 0.6,0 0.6,2.28 0.48,0 0.6,0 0.48,2.28 0.6,281.4 0.6,2.4 0.48,0 0.6,-2.4 0.48,4.68 0.6,-2.28 0.6,2.28 0.48,-2.28 0.6,2.28 0.48,2.28 0.6,-2.28 0.6,0 0.48,0 0.6,-2.28 0.48,2.28 0.6,-4.68 0.6,2.4 0.48,2.28 0.6,0 0.48,0 0.6,-281.52 0.6,-6.84 0.48,0 0.6,-2.28 0.48,2.28 0.6,0 0.6,0 0.48,283.68 0.6,4.68 0.48,-4.68 0.6,4.68 0.6,0 0.48,-2.28 0.6,-279.24 0.48,-4.56 0.6,-2.28 0.6,0 0.48,0 0.6,0 0.48,-2.28 0.6,0 0.6,0 0.48,2.28 0.6,-2.28 0.48,0 0.6,0 0.6,0 0.48,0 0.6,2.28 0.48,-2.28 0.6,2.28 0.6,0 0.48,-2.28 0.6,2.28 0.48,283.68 0.6,-4.56 0.6,9.24 0.48,0 0.6,-2.28 0.48,0 0.6,-279.24 0.6,-4.56 0.48,-2.28"
         style="fill:none;stroke:#4a7ebb;stroke-width:0.12;stroke-linecap:round;stroke-linejoin:round;stroke-miterlimit:10;stroke-opacity:1;stroke-dasharray:none"
         id="path3029"
         inkscape:connector-curvature="0" /></g><g
       id="g3031"
       transform="translate(483.42,142.14)"><path
         d="m 0,0 0.6,0 0.48,0 0.6,0 0.6,-2.28 0.48,0 0.6,2.28 0.48,-2.28 0.6,0 0.6,2.28 0.48,0 0.6,-2.28 0.48,0 0.6,0 0.6,0 0.48,2.28 0.6,0 0.48,-2.28 0.6,276.84 0.6,6.84 0.48,4.68 0.6,2.28 0.48,-2.28 0.6,2.28 0.6,-4.68 0.48,6.96 0.6,0 0.48,-2.28 0.6,0 0.6,0 0.48,0 0.6,0 0.48,2.28 0.6,-4.56 0.6,2.28 0.48,0 0.6,-2.28 0.48,2.28 L 21,9.24 21.6,2.28 22.08,0 l 0.6,0 0.48,0 0.6,0 0.6,-2.28 0.48,283.68 0.6,0 0.48,2.28 0.6,2.4 0.6,0 0.48,0 0.6,0 0.48,2.28 0.6,0 0.6,2.28 0.48,-4.56 0.6,0 0.48,4.56 0.6,-4.56 0.6,2.28 0.48,0 0.6,0 0.48,-2.28 0.6,0 0.6,0 0.48,-279.24 0.6,-4.56 0.48,0 0.6,-2.28 0.6,-2.28 0.48,2.28 0.6,0 0.48,281.4 0.6,0 0.6,4.68 0.48,-2.4 0.6,4.68 0.48,2.28 0.6,-4.56 0.6,2.28 0.48,0 0.6,-2.28 0.48,4.56 0.6,0 0.6,-4.56 0.48,0 0.6,0 0.48,0 0.6,2.28 0.6,-2.28 0.48,-2.4 0.6,2.4 0.48,-279.24 0.6,-4.56 0.6,-2.28 0.48,0 0.6,0 0.48,0 0.6,0 0.6,279.12 0.48,6.96 0.6,2.28 0.48,-2.28 0.6,2.28 0.6,-2.28 0.48,6.84 0.6,-290.64 0.48,0 0.6,0 0.6,-2.28 0.48,0 0.6,0 0.48,0 0.6,0 0.6,0 0.48,0 0.6,0 0.48,-2.28 0.6,2.28 0.6,0 0.48,0 0.6,0 0.48,-2.28 0.6,4.56 0.6,-2.28 0.48,0 0.6,286.08 0.48,2.28 0.6,0 0.48,0 0.6,0 0.6,2.28 0.48,-281.4 0.6,-4.68 0.48,-2.28 0.6,-2.28 0.6,0 0.48,0 0.6,-2.28 0.48,2.28 0.6,-2.28 0.6,2.28 0.48,0 0.6,0 0.48,0 0.6,-2.28 0.6,2.28 0.48,0 0.6,0 0.48,0 0.6,0 0.6,-2.28 0.48,2.28 0.6,281.4 0.48,4.68 0.6,4.56 0.6,-4.56 0.48,2.28 0.6,-2.28 0.48,2.28 0.6,-2.28 0.6,4.56 0.48,-4.56 0.6,2.28 0.48,0 0.6,2.28 0.6,0 0.48,0 0.6,-2.28 0.48,2.28 0.6,-2.28 0.6,2.28 0.48,0 L 95.52,4.56 96,0 l 0.6,0 0.6,0 0.48,0 0.6,-2.28 0.48,279.12 0.6,6.84 0.6,-2.28 0.48,4.68 0.6,0 0.48,4.56 0.6,-2.28 0.6,-281.52 0.48,-4.56 0.6,-2.28 0.48,-2.28 0.6,2.28 0.6,-2.28 0.48,2.28 0.6,-2.28 0.48,0 0.6,2.28 0.6,-2.28 0.48,2.28 0.6,-2.28 0.48,0 0.6,0"
         style="fill:none;stroke:#4a7ebb;stroke-width:0.12;stroke-linecap:round;stroke-linejoin:round;stroke-miterlimit:10;stroke-opacity:1;stroke-dasharray:none"
         id="path3033"
         inkscape:connector-curvature="0" /></g><g
       id="g3035"
       transform="translate(593.82,139.86)"><path
         d="m 0,0 0.6,2.28 0.48,0 0.6,0 0.48,-2.28 0.6,2.28 0.6,279.12 0.48,4.56 0.6,2.4 0.48,0 0.6,-2.4 0.6,4.68 0.48,0 0.6,-283.8 0.48,-2.28 0.6,-2.28 0.6,0 L 9.36,0 9.96,2.28 10.44,0 l 0.6,0 0.6,2.28 0.48,0 0.6,-2.28 0.48,0 0.6,2.28 0.6,0 0.48,0 0.6,0 0.48,-2.28 0.6,0 0.6,0 0.48,0 0.6,283.68 0.48,0 0.6,2.28 0.6,2.4 0.48,0 0.6,2.28 0.48,-6.96 0.6,9.24 0.6,-6.96 0.48,2.4 0.6,4.56 0.48,0 0.6,0 0.6,-4.56 0.48,2.28 0.6,-2.28 0.48,2.28 0.6,0 0.6,0 0.48,-2.28 0.6,-279.24 0.48,-4.56 0.6,0 0.6,-2.28 0.48,0 0.6,-2.28 0.48,0 0.6,283.68 0.6,2.28 0.48,-2.28 0.6,9.24 0.48,-6.96 0.6,4.68 0.6,-2.28 0.48,-283.8 0.6,-2.28 0.48,0 0.6,2.28 0.6,-4.56 0.48,2.28 0.6,0 0.48,-2.28 0.6,0 0.6,2.28 0.48,0 0.6,0 0.48,-2.28 0.6,2.28 0.6,-2.28 0.48,0 0.6,0 0.48,0 0.6,0 0.6,2.28 L 48,0 48.6,2.28 49.08,0 l 0.6,0 0.6,0"
         style="fill:none;stroke:#4a7ebb;stroke-width:0.12;stroke-linecap:round;stroke-linejoin:round;stroke-miterlimit:10;stroke-opacity:1;stroke-dasharray:none"
         id="path3037"
         inkscape:connector-curvature="0" /></g><text
       transform="matrix(1,0,0,-1,101.9859,81.1431)"
       id="text3039"><tspan
         style="font-size:9.96000004px;font-variant:normal;font-weight:normal;font-stretch:normal;writing-mode:lr-tb;fill:#000000;fill-opacity:1;fill-rule:nonzero;stroke:none;font-family:Calibri;-inkscape-font-specification:Calibri"
         x="0 2.9979601 8.0377197 10.5576 15.59736 20.637119 25.67688 30.71664 35.756401 40.796162"
         y="0"
         sodipodi:role="line"
         id="tspan3041">-1.000000 </tspan><tspan
         style="font-size:9.96000004px;font-variant:normal;font-weight:normal;font-stretch:normal;writing-mode:lr-tb;fill:#000000;fill-opacity:1;fill-rule:nonzero;stroke:none;font-family:Calibri;-inkscape-font-specification:Calibri"
         x="3.0876 8.1273603 10.64724 15.687 20.726761 25.76652 30.80628 35.846039 40.885799"
         y="-57.389519"
         sodipodi:role="line"
         id="tspan3043">0.000000 </tspan><tspan
         style="font-size:9.96000004px;font-variant:normal;font-weight:normal;font-stretch:normal;writing-mode:lr-tb;fill:#000000;fill-opacity:1;fill-rule:nonzero;stroke:none;font-family:Calibri;-inkscape-font-specification:Calibri"
         x="3.0876 8.1273603 10.64724 15.687 20.726761 25.76652 30.80628 35.846039 40.885799"
         y="-114.77904"
         sodipodi:role="line"
         id="tspan3045">1.000000 </tspan><tspan
         style="font-size:9.96000004px;font-variant:normal;font-weight:normal;font-stretch:normal;writing-mode:lr-tb;fill:#000000;fill-opacity:1;fill-rule:nonzero;stroke:none;font-family:Calibri;-inkscape-font-specification:Calibri"
         x="3.0876 8.1273603 10.64724 15.687 20.726761 25.76652 30.80628 35.846039 40.885799"
         y="-172.16856"
         sodipodi:role="line"
         id="tspan3047">2.000000 </tspan><tspan
         style="font-size:9.96000004px;font-variant:normal;font-weight:normal;font-stretch:normal;writing-mode:lr-tb;fill:#000000;fill-opacity:1;fill-rule:nonzero;stroke:none;font-family:Calibri;-inkscape-font-specification:Calibri"
         x="3.0876 8.1273603 10.64724 15.687 20.726761 25.76652 30.80628 35.846039 40.885799"
         y="-229.55807"
         sodipodi:role="line"
         id="tspan3049">3.000000 </tspan><tspan
         style="font-size:9.96000004px;font-variant:normal;font-weight:normal;font-stretch:normal;writing-mode:lr-tb;fill:#000000;fill-opacity:1;fill-rule:nonzero;stroke:none;font-family:Calibri;-inkscape-font-specification:Calibri"
         x="3.0876 8.1273603 10.64724 15.687 20.726761 25.76652 30.80628 35.846039 40.885799"
         y="-286.9476"
         sodipodi:role="line"
         id="tspan3051">4.000000 </tspan><tspan
         style="font-size:9.96000004px;font-variant:normal;font-weight:normal;font-stretch:normal;writing-mode:lr-tb;fill:#000000;fill-opacity:1;fill-rule:nonzero;stroke:none;font-family:Calibri;-inkscape-font-specification:Calibri"
         x="3.0876 8.1273603 10.64724 15.687 20.726761 25.76652 30.80628 35.846039 40.885799"
         y="-344.33713"
         sodipodi:role="line"
         id="tspan3053">5.000000 </tspan><tspan
         style="font-size:9.96000004px;font-variant:normal;font-weight:normal;font-stretch:normal;writing-mode:lr-tb;fill:#000000;fill-opacity:1;fill-rule:nonzero;stroke:none;font-family:Calibri;-inkscape-font-specification:Calibri"
         x="3.0876 8.1273603 10.64724 15.687 20.726761 25.76652 30.80628 35.846039 40.885799"
         y="-401.72665"
         sodipodi:role="line"
         id="tspan3055">6.000000 </tspan><tspan
         style="font-size:9.96000004px;font-variant:normal;font-weight:normal;font-stretch:normal;writing-mode:lr-tb;fill:#000000;fill-opacity:1;fill-rule:nonzero;stroke:none;font-family:Calibri;-inkscape-font-specification:Calibri"
         x="31.374001 36.413761 38.93364 43.9734 49.013161 54.052921 59.092682 64.132439 69.172203 85.277519 90.317284 92.837158 97.876923 102.91668 107.95644 112.9962 118.03596 123.07572 139.18105 144.22079 146.74068 151.78044 156.82021 161.85995 166.89972 171.93948 176.97923 193.08456 198.12431 200.6442 205.68396 210.72372 215.76347 220.80324 225.843 230.88277 246.98808 252.02785 254.54771 259.58749 264.62723 269.66699 274.70676 279.74652 284.78629 300.8916 305.93137 308.45123 313.491 318.53076 323.57053 328.61029 333.65005 338.68979 354.7951 359.83487 362.35477 367.39453 372.43427 377.47403 382.51379 387.55356 392.59332 408.69864 413.7384 416.25827 421.29803 426.3378 431.37756 436.41733 441.45709 446.49683 462.60217 467.64191 470.1618 475.20157 480.24133 485.28107 490.32083 495.3606 500.40036 516.50568 521.54541 524.06531 529.1051 534.14484 539.18457 544.22437 549.2641 554.30389 570.40918 575.44897 577.96881 583.00861 588.04834 593.08813 598.12787 603.16766 608.2074"
         y="-44.40168"
         sodipodi:role="line"
         id="tspan3057">0.000000 0.005000 0.010000 0.015000 0.020000 0.025000 0.030000 0.035000 0.040000 0.045000 0.050000 </tspan></text>
<text
       transform="matrix(1,0,0,-1,388.8191,505.2068)"
       id="text3059"><tspan
         style="font-size:18px;font-variant:normal;font-weight:bold;font-stretch:normal;writing-mode:lr-tb;fill:#000000;fill-opacity:1;fill-rule:nonzero;stroke:none;font-family:Calibri;-inkscape-font-specification:Calibri-Bold"
         x="0 9.8459997 19.566 24.011999 30.24"
         y="0"
         sodipodi:role="line"
         id="tspan3061">Volt </tspan></text>
<g
       id="g3063"
       transform="translate(668.34,288.42)"><path
         d="M 0,0 19.2,0"
         style="fill:none;stroke:#4a7ebb;stroke-width:0.12;stroke-linecap:round;stroke-linejoin:round;stroke-miterlimit:10;stroke-opacity:1;stroke-dasharray:none"
         id="path3065"
         inkscape:connector-curvature="0" /></g><text
       transform="matrix(1,0,0,-1,689.5598,285.5532)"
       id="text3067"><tspan
         style="font-size:9.96000004px;font-variant:normal;font-weight:normal;font-stretch:normal;writing-mode:lr-tb;fill:#000000;fill-opacity:1;fill-rule:nonzero;stroke:none;font-family:Calibri;-inkscape-font-specification:Calibri"
         x="0 5.6373601 10.91616 13.197 16.56348"
         y="0"
         sodipodi:role="line"
         id="tspan3069">Volt </tspan></text>
<path
       d="m 91.613,529.867 624.667,0 0,-452 -624.667,0 0,452 z"
       style="fill:none;stroke:#878787;stroke-width:0.75;stroke-linecap:butt;stroke-linejoin:round;stroke-miterlimit:10;stroke-opacity:1;stroke-dasharray:none"
       id="path3071"
       inkscape:connector-curvature="0" /></g><g
     inkscape:groupmode="layer"
     id="layer1"
     inkscape:label="annotations"><text
       xml:space="preserve"
       style="font-size:10px;font-style:normal;font-weight:normal;line-height:125%;letter-spacing:0px;word-spacing:0px;fill:#000000;fill-opacity:1;stroke:none;font-family:Sans"
       x="191.0132"
       y="200.28807"
       id="text3074"
       sodipodi:linespacing="125%"><tspan
         sodipodi:role="line"
         id="tspan3076"
         x="191.0132"
         y="200.28807">0</tspan></text>
<text
       sodipodi:linespacing="125%"
       id="text3078"
       y="200.28807"
       x="338.17145"
       style="font-size:10px;font-style:normal;font-weight:normal;line-height:125%;letter-spacing:0px;word-spacing:0px;fill:#000000;fill-opacity:1;stroke:none;font-family:Sans"
       xml:space="preserve"><tspan
         y="200.28807"
         x="338.17145"
         id="tspan3080"
         sodipodi:role="line">1</tspan></text>
<text
       sodipodi:linespacing="125%"
       id="text3082"
       y="200.28807"
       x="356.80878"
       style="font-size:10px;font-style:normal;font-weight:normal;line-height:125%;letter-spacing:0px;word-spacing:0px;fill:#000000;fill-opacity:1;stroke:none;font-family:Sans"
       xml:space="preserve"><tspan
         y="200.28807"
         x="356.80878"
         id="tspan3084"
         sodipodi:role="line">0</tspan></text>
<text
       xml:space="preserve"
       style="font-size:10px;font-style:normal;font-weight:normal;line-height:125%;letter-spacing:0px;word-spacing:0px;fill:#000000;fill-opacity:1;stroke:none;font-family:Sans"
       x="375.42847"
       y="200.28807"
       id="text3086"
       sodipodi:linespacing="125%"><tspan
         sodipodi:role="line"
         id="tspan3088"
         x="375.42847"
         y="200.28807">0</tspan></text>
<text
       xml:space="preserve"
       style="font-size:10px;font-style:normal;font-weight:normal;line-height:125%;letter-spacing:0px;word-spacing:0px;fill:#000000;fill-opacity:1;stroke:none;font-family:Sans"
       x="392.35577"
       y="200.28807"
       id="text3090"
       sodipodi:linespacing="125%"><tspan
         sodipodi:role="line"
         id="tspan3092"
         x="392.35577"
         y="200.28807">1</tspan></text>
<text
       sodipodi:linespacing="125%"
       id="text3094"
       y="200.28807"
       x="410.67993"
       style="font-size:10px;font-style:normal;font-weight:normal;line-height:125%;letter-spacing:0px;word-spacing:0px;fill:#000000;fill-opacity:1;stroke:none;font-family:Sans"
       xml:space="preserve"><tspan
         y="200.28807"
         x="410.67993"
         id="tspan3096"
         sodipodi:role="line">1</tspan></text>
<text
       sodipodi:linespacing="125%"
       id="text3098"
       y="200.28807"
       x="430.79498"
       style="font-size:10px;font-style:normal;font-weight:normal;line-height:125%;letter-spacing:0px;word-spacing:0px;fill:#000000;fill-opacity:1;stroke:none;font-family:Sans"
       xml:space="preserve"><tspan
         y="200.28807"
         x="430.79498"
         id="tspan3100"
         sodipodi:role="line">0</tspan></text>
<text
       xml:space="preserve"
       style="font-size:10px;font-style:normal;font-weight:normal;line-height:125%;letter-spacing:0px;word-spacing:0px;fill:#000000;fill-opacity:1;stroke:none;font-family:Sans"
       x="447.91934"
       y="200.28807"
       id="text3102"
       sodipodi:linespacing="125%"><tspan
         sodipodi:role="line"
         id="tspan3104"
         x="447.91934"
         y="200.28807">1</tspan></text>
<text
       sodipodi:linespacing="125%"
       id="text3106"
       y="200.28807"
       x="466.2435"
       style="font-size:10px;font-style:normal;font-weight:normal;line-height:125%;letter-spacing:0px;word-spacing:0px;fill:#000000;fill-opacity:1;stroke:none;font-family:Sans"
       xml:space="preserve"><tspan
         y="200.28807"
         x="466.2435"
         id="tspan3108"
         sodipodi:role="line">1</tspan></text>
<text
       xml:space="preserve"
       style="font-size:10px;font-style:normal;font-weight:normal;line-height:125%;letter-spacing:0px;word-spacing:0px;fill:#000000;fill-opacity:1;stroke:none;font-family:Sans"
       x="483.97656"
       y="200.28807"
       id="text3110"
       sodipodi:linespacing="125%"><tspan
         sodipodi:role="line"
         id="tspan3112"
         x="483.97656"
         y="200.28807">1</tspan></text>
<text
       sodipodi:linespacing="125%"
       id="text3114"
       y="200.28807"
       x="522.39819"
       style="font-size:10px;font-style:normal;font-weight:normal;line-height:125%;letter-spacing:0px;word-spacing:0px;fill:#000000;fill-opacity:1;stroke:none;font-family:Sans"
       xml:space="preserve"><tspan
         y="200.28807"
         x="522.39819"
         id="tspan3116"
         sodipodi:role="line">1</tspan></text>
<text
       xml:space="preserve"
       style="font-size:10px;font-style:normal;font-weight:normal;line-height:125%;letter-spacing:0px;word-spacing:0px;fill:#000000;fill-opacity:1;stroke:none;font-family:Sans"
       x="558.45538"
       y="200.28807"
       id="text3118"
       sodipodi:linespacing="125%"><tspan
         sodipodi:role="line"
         id="tspan3120"
         x="558.45538"
         y="200.28807">1</tspan></text>
<text
       sodipodi:linespacing="125%"
       id="text3122"
       y="200.28807"
       x="615.29968"
       style="font-size:10px;font-style:normal;font-weight:normal;line-height:125%;letter-spacing:0px;word-spacing:0px;fill:#000000;fill-opacity:1;stroke:none;font-family:Sans"
       xml:space="preserve"><tspan
         y="200.28807"
         x="615.29968"
         id="tspan3124"
         sodipodi:role="line">1</tspan></text>
<text
       xml:space="preserve"
       style="font-size:10px;font-style:normal;font-weight:normal;line-height:125%;letter-spacing:0px;word-spacing:0px;fill:#000000;fill-opacity:1;stroke:none;font-family:Sans"
       x="632.83569"
       y="200.28807"
       id="text3126"
       sodipodi:linespacing="125%"><tspan
         sodipodi:role="line"
         id="tspan3128"
         x="632.83569"
         y="200.28807">1</tspan></text>
<text
       sodipodi:linespacing="125%"
       id="text3130"
       y="200.28807"
       x="651.06134"
       style="font-size:10px;font-style:normal;font-weight:normal;line-height:125%;letter-spacing:0px;word-spacing:0px;fill:#000000;fill-opacity:1;stroke:none;font-family:Sans"
       xml:space="preserve"><tspan
         y="200.28807"
         x="651.06134"
         id="tspan3132"
         sodipodi:role="line">1</tspan></text>
<text
       xml:space="preserve"
       style="font-size:10px;font-style:normal;font-weight:normal;line-height:125%;letter-spacing:0px;word-spacing:0px;fill:#000000;fill-opacity:1;stroke:none;font-family:Sans"
       x="707.70856"
       y="200.28807"
       id="text3134"
       sodipodi:linespacing="125%"><tspan
         sodipodi:role="line"
         id="tspan3136"
         x="707.70856"
         y="200.28807">1</tspan></text>
<text
       sodipodi:linespacing="125%"
       id="text3138"
       y="200.28807"
       x="762.18842"
       style="font-size:10px;font-style:normal;font-weight:normal;line-height:125%;letter-spacing:0px;word-spacing:0px;fill:#000000;fill-opacity:1;stroke:none;font-family:Sans"
       xml:space="preserve"><tspan
         y="200.28807"
         x="762.18842"
         id="tspan3140"
         sodipodi:role="line">1</tspan></text>
<text
       xml:space="preserve"
       style="font-size:10px;font-style:normal;font-weight:normal;line-height:125%;letter-spacing:0px;word-spacing:0px;fill:#000000;fill-opacity:1;stroke:none;font-family:Sans"
       x="504.78122"
       y="200.28807"
       id="text3142"
       sodipodi:linespacing="125%"><tspan
         sodipodi:role="line"
         id="tspan3144"
         x="504.78122"
         y="200.28807">0</tspan></text>
<text
       sodipodi:linespacing="125%"
       id="text3146"
       y="200.28807"
       x="542.61176"
       style="font-size:10px;font-style:normal;font-weight:normal;line-height:125%;letter-spacing:0px;word-spacing:0px;fill:#000000;fill-opacity:1;stroke:none;font-family:Sans"
       xml:space="preserve"><tspan
         y="200.28807"
         x="542.61176"
         id="tspan3148"
         sodipodi:role="line">0</tspan></text>
<text
       xml:space="preserve"
       style="font-size:10px;font-style:normal;font-weight:normal;line-height:125%;letter-spacing:0px;word-spacing:0px;fill:#000000;fill-opacity:1;stroke:none;font-family:Sans"
       x="579.06305"
       y="200.28807"
       id="text3150"
       sodipodi:linespacing="125%"><tspan
         sodipodi:role="line"
         id="tspan3152"
         x="579.06305"
         y="200.28807">0</tspan></text>
<text
       sodipodi:linespacing="125%"
       id="text3154"
       y="200.28807"
       x="597.48572"
       style="font-size:10px;font-style:normal;font-weight:normal;line-height:125%;letter-spacing:0px;word-spacing:0px;fill:#000000;fill-opacity:1;stroke:none;font-family:Sans"
       xml:space="preserve"><tspan
         y="200.28807"
         x="597.48572"
         id="tspan3156"
         sodipodi:role="line">0</tspan></text>
<text
       xml:space="preserve"
       style="font-size:10px;font-style:normal;font-weight:normal;line-height:125%;letter-spacing:0px;word-spacing:0px;fill:#000000;fill-opacity:1;stroke:none;font-family:Sans"
       x="671.96454"
       y="200.28807"
       id="text3158"
       sodipodi:linespacing="125%"><tspan
         sodipodi:role="line"
         id="tspan3160"
         x="671.96454"
         y="200.28807">0</tspan></text>
<text
       sodipodi:linespacing="125%"
       id="text3162"
       y="200.28807"
       x="690.38721"
       style="font-size:10px;font-style:normal;font-weight:normal;line-height:125%;letter-spacing:0px;word-spacing:0px;fill:#000000;fill-opacity:1;stroke:none;font-family:Sans"
       xml:space="preserve"><tspan
         y="200.28807"
         x="690.38721"
         id="tspan3164"
         sodipodi:role="line">0</tspan></text>
<text
       xml:space="preserve"
       style="font-size:10px;font-style:normal;font-weight:normal;line-height:125%;letter-spacing:0px;word-spacing:0px;fill:#000000;fill-opacity:1;stroke:none;font-family:Sans"
       x="726.93701"
       y="200.28807"
       id="text3166"
       sodipodi:linespacing="125%"><tspan
         sodipodi:role="line"
         id="tspan3168"
         x="726.93701"
         y="200.28807">0</tspan></text>
<text
       sodipodi:linespacing="125%"
       id="text3170"
       y="200.28807"
       x="745.95081"
       style="font-size:10px;font-style:normal;font-weight:normal;line-height:125%;letter-spacing:0px;word-spacing:0px;fill:#000000;fill-opacity:1;stroke:none;font-family:Sans"
       xml:space="preserve"><tspan
         y="200.28807"
         x="745.95081"
         id="tspan3172"
         sodipodi:role="line">0</tspan></text>
<path
       style="fill:none;stroke:#ff0000;stroke-width:0.35433071;stroke-linecap:butt;stroke-linejoin:miter;stroke-opacity:1;stroke-miterlimit:4;stroke-dasharray:none"
       d="m 336.0495,193.39153 0,-12.81781 364.4716,0 0,13.37511"
       id="path3178"
       inkscape:connector-curvature="0" /><text
       sodipodi:linespacing="125%"
       id="text3948"
       y="175.20975"
       x="513.68762"
       style="font-size:10px;font-style:normal;font-weight:normal;line-height:125%;letter-spacing:0px;word-spacing:0px;fill:#000000;fill-opacity:1;stroke:none;font-family:Sans"
       xml:space="preserve"><tspan
         y="175.20975"
         x="513.68762"
         id="tspan3950"
         sodipodi:role="line">20 bits</tspan></text>
<path
       inkscape:connector-curvature="0"
       id="path3952"
       d="m 703.7646,193.48345 0,-13.01001 67.6334,0 0,13.57567"
       style="fill:none;stroke:#ff0000;stroke-width:0.1537763;stroke-linecap:butt;stroke-linejoin:miter;stroke-miterlimit:4;stroke-opacity:1;stroke-dasharray:none" /><text
       xml:space="preserve"
       style="font-size:10px;font-style:normal;font-weight:normal;line-height:125%;letter-spacing:0px;word-spacing:0px;fill:#000000;fill-opacity:1;stroke:none;font-family:Sans"
       x="723.23096"
       y="175.20975"
       id="text3954"
       sodipodi:linespacing="125%"><tspan
         sodipodi:role="line"
         id="tspan3956"
         x="723.23096"
         y="175.20975">4 bits</tspan></text>
</g></svg>